<svg id="visual" viewBox="0 0 1920 1080" width="1920" height="1080" xmlns="http://www.w3.org/2000/svg" xmlns:xlink="http://www.w3.org/1999/xlink" version="1.1"><rect x="0" y="0" width="1920" height="1080" fill="#ffffff"></rect><defs><linearGradient id="grad1_0" x1="43.8%" y1="0%" x2="100%" y2="100%"><stop offset="14.444444444444446%" stop-color="#ffffff" stop-opacity="1"></stop><stop offset="85.55555555555554%" stop-color="#ffffff" stop-opacity="1"></stop></linearGradient></defs><defs><linearGradient id="grad2_0" x1="0%" y1="0%" x2="56.3%" y2="100%"><stop offset="14.444444444444446%" stop-color="#ffffff" stop-opacity="1"></stop><stop offset="85.55555555555554%" stop-color="#ffffff" stop-opacity="1"></stop></linearGradient></defs><g transform="translate(1920, 0)"><path d="M0 594C-45.6 541.7 -91.2 489.4 -156.7 482.2C-222.2 475 -307.5 512.9 -349.1 480.6C-390.8 448.2 -388.7 345.7 -378.6 275.1C-368.6 204.4 -350.6 165.7 -385.2 125.2C-419.8 84.6 -506.9 42.3 -594 0L0 0Z" fill="#FF5C36"></path></g><g transform="translate(0, 1080)"><path d="M0 -594C48.7 -541.1 97.4 -488.2 153 -470.8C208.5 -453.3 270.9 -471.3 333.9 -459.5C396.9 -447.7 460.5 -406.2 480.6 -349.1C500.6 -292.1 477.2 -219.6 488.8 -158.8C500.5 -98.1 547.2 -49 594 0L0 0Z" fill="#FF5C36"></path></g></svg>